<?xml version="1.0" standalone="no"?>
<!DOCTYPE svg PUBLIC "-//W3C//DTD SVG 20010904//EN"
 "http://www.w3.org/TR/2001/REC-SVG-20010904/DTD/svg10.dtd">
<svg version="1.0" xmlns="http://www.w3.org/2000/svg"
 width="348.000000pt" height="348.000000pt" viewBox="0 0 348.000000 348.000000"
 preserveAspectRatio="xMidYMid meet">
<metadata>
Created by potrace 1.14, written by Peter Selinger 2001-2017
</metadata>
<g transform="translate(0.000000,348.000000) scale(0.100000,-0.100000)"
fill="#000000" stroke="none">
<path d="M1697 3468 c-9 -7 -90 -132 -181 -277 l-165 -263 -75 -33 c-308 -134
-557 -417 -664 -755 -66 -210 -67 -220 -64 -702 4 -533 -6 -608 -104 -841 -19
-45 -34 -89 -34 -99 0 -50 24 -60 681 -283 350 -118 643 -215 652 -215 8 0 54
14 101 30 48 17 333 114 634 216 564 190 592 202 592 252 0 10 -15 54 -34 99
-98 233 -108 308 -104 841 3 421 2 441 -19 537 -12 55 -32 129 -43 165 -28 84
-109 255 -151 317 -132 195 -317 352 -516 439 l-74 32 -165 263 c-91 145 -173
270 -182 277 -8 6 -28 12 -42 12 -14 0 -34 -6 -43 -12z m152 -383 l100 -159
-70 -36 c-38 -19 -85 -50 -104 -68 l-35 -34 -35 34 c-19 18 -66 49 -104 68
l-70 36 102 162 c56 89 105 161 109 160 4 -2 52 -75 107 -163z m-336 -325 c33
-13 71 -38 100 -67 l47 -47 0 -484 0 -484 29 -29 c37 -37 65 -37 102 0 l29 29
0 484 0 484 47 47 c50 50 129 87 187 87 44 0 210 -84 297 -149 201 -152 341
-379 404 -653 32 -140 37 -259 24 -573 -9 -237 -9 -325 0 -420 13 -126 55
-307 90 -388 15 -35 17 -49 8 -52 -6 -3 -172 -59 -367 -125 -195 -66 -448
-153 -562 -192 l-208 -71 -207 71 c-115 39 -368 126 -563 192 -195 66 -361
122 -367 125 -9 3 -7 17 8 52 35 82 77 263 89 388 8 84 9 182 3 325 -12 311
-9 511 11 614 73 378 268 649 579 806 111 56 140 60 220 30z"/>
<path d="M810 1910 c-16 -16 -20 -33 -20 -92 0 -129 47 -235 142 -323 162
-150 388 -166 570 -41 102 69 129 130 80 177 -26 25 -687 299 -722 299 -17 0
-39 -9 -50 -20z m351 -260 c105 -44 198 -84 207 -89 25 -14 -54 -35 -128 -35
-67 0 -149 30 -196 71 -46 41 -101 133 -79 133 3 0 91 -36 196 -80z"/>
<path d="M2255 1790 c-181 -76 -338 -144 -348 -150 -28 -17 -40 -59 -26 -92
13 -33 86 -96 144 -126 64 -32 144 -52 210 -52 253 0 454 200 455 451 0 78
-21 109 -73 109 -18 -1 -177 -62 -362 -140z m265 -73 c0 -16 -54 -94 -84 -120
-47 -41 -129 -71 -196 -71 -59 0 -148 19 -137 30 6 6 400 173 410 174 4 0 7
-6 7 -13z"/>
<path d="M1685 1505 l-25 -24 0 -601 0 -601 25 -24 c32 -33 78 -33 110 0 l25
24 0 601 0 601 -25 24 c-15 16 -36 25 -55 25 -19 0 -40 -9 -55 -25z"/>
</g>
</svg>
